<svg width="80" height="61" viewBox="0 0 80 61" fill="none" xmlns="http://www.w3.org/2000/svg">
<path d="M67.7232 5.97333C62.6232 3.67333 57.1566 1.97333 51.4399 1.00666C51.389 0.996886 51.3363 1.00318 51.2891 1.02468C51.2419 1.04618 51.2026 1.08182 51.1766 1.12666C50.4766 2.35666 49.6966 3.95999 49.1499 5.22666C43.0869 4.32078 36.9229 4.32078 30.8599 5.22666C30.251 3.82286 29.5644 2.45407 28.8032 1.12666C28.7774 1.08127 28.7384 1.04483 28.6913 1.02219C28.6443 0.999562 28.5915 0.991817 28.5399 0.999993C22.8266 1.96666 17.3599 3.66666 12.2566 5.96999C12.2127 5.98841 12.1754 6.01981 12.1499 6.05999C1.77656 21.31 -1.06677 36.1833 0.329893 50.87C0.33378 50.906 0.344945 50.9408 0.36271 50.9723C0.380474 51.0038 0.404467 51.0314 0.433226 51.0533C6.48787 55.4614 13.241 58.8194 20.4099 60.9867C20.4599 61.002 20.5133 61.002 20.5633 60.9865C20.6132 60.9711 20.6573 60.9409 20.6899 60.9C22.2325 58.8369 23.5996 56.6481 24.7766 54.3567C24.7929 54.3253 24.8023 54.2909 24.8042 54.2556C24.806 54.2203 24.8003 54.185 24.7873 54.1521C24.7744 54.1193 24.7545 54.0896 24.7291 54.065C24.7036 54.0405 24.6732 54.0217 24.6399 54.01C22.4866 53.1991 20.4002 52.2205 18.3999 51.0833C18.364 51.0628 18.3337 51.0337 18.3117 50.9986C18.2898 50.9635 18.277 50.9235 18.2743 50.8822C18.2717 50.8409 18.2793 50.7996 18.2966 50.7619C18.3139 50.7243 18.3402 50.6916 18.3732 50.6667C18.7932 50.3567 19.2132 50.0333 19.6132 49.71C19.6492 49.6809 19.6926 49.6624 19.7385 49.6565C19.7844 49.6506 19.831 49.6576 19.8732 49.6767C32.9632 55.5567 47.1399 55.5567 60.0766 49.6767C60.1189 49.6565 60.166 49.6486 60.2125 49.6539C60.2591 49.6592 60.3032 49.6775 60.3399 49.7067C60.7399 50.0333 61.1566 50.3567 61.5799 50.6667C61.6132 50.6911 61.64 50.7234 61.6578 50.7607C61.6756 50.798 61.6839 50.8391 61.6819 50.8804C61.68 50.9216 61.6678 50.9618 61.6465 50.9972C61.6252 51.0326 61.5954 51.0622 61.5599 51.0833C59.5666 52.23 57.4932 53.2 55.3166 54.0067C55.2831 54.0188 55.2527 54.0379 55.2272 54.0628C55.2018 54.0876 55.1819 54.1176 55.169 54.1507C55.1561 54.1838 55.1503 54.2193 55.1522 54.2549C55.1541 54.2904 55.1635 54.3251 55.1799 54.3567C56.3799 56.6467 57.7532 58.8267 59.2632 60.8967C59.2946 60.9391 59.3384 60.9709 59.3885 60.9876C59.4386 61.0043 59.4926 61.0051 59.5432 60.99C66.7244 58.8288 73.4886 55.4692 79.5499 51.0533C79.5795 51.0326 79.6043 51.0059 79.6227 50.9749C79.6411 50.9438 79.6526 50.9092 79.6566 50.8733C81.3232 33.8933 76.8632 19.14 67.8266 6.06666C67.8044 6.02418 67.7677 5.99106 67.7232 5.97333ZM26.7332 41.9267C22.7932 41.9267 19.5432 38.3633 19.5432 33.9933C19.5432 29.62 22.7299 26.06 26.7332 26.06C30.7666 26.06 33.9866 29.65 33.9232 33.9933C33.9232 38.3667 30.7366 41.9267 26.7332 41.9267ZM53.3166 41.9267C49.3732 41.9267 46.1266 38.3633 46.1266 33.9933C46.1266 29.62 49.3099 26.06 53.3166 26.06C57.3499 26.06 60.5699 29.65 60.5066 33.9933C60.5066 38.3667 57.3532 41.9267 53.3166 41.9267Z" fill="white"/>
</svg>
