<svg width="62" height="62" viewBox="0 0 62 62" fill="none" xmlns="http://www.w3.org/2000/svg">
<rect width="62" height="62" rx="12" fill="#252525"/>
<g filter="url(#filter0_d_975_467)">
<path d="M51.463 44.379C51.1585 44.7364 50.6156 44.7628 50.2779 44.4366L47.9804 42.2174C47.6783 41.9257 47.2054 41.9139 46.8729 42.1703C44.4281 44.0563 41.5455 44.9993 38.225 44.9993C36.3151 44.9993 34.6014 44.6854 33.0839 44.0574C31.5664 43.4295 30.376 42.5661 29.5126 41.4673C28.6492 40.3423 28.2175 39.0733 28.2175 37.6605C28.2175 35.9599 28.7146 34.4686 29.7088 33.1866C30.5603 32.0663 31.8722 30.9652 33.6447 29.8832C34.1057 29.6018 34.1943 28.9617 33.8346 28.5588C33.1158 27.7539 32.5778 26.9941 32.2205 26.2795C31.7496 25.3114 31.5141 24.3172 31.5141 23.2969C31.5141 21.3608 32.2336 19.8041 33.6726 18.6267C35.1377 17.4232 37.0738 16.8214 39.4808 16.8214C41.7047 16.8214 43.4838 17.3709 44.8182 18.4697C46.1525 19.5424 46.8196 21.0076 46.8196 22.8652C46.8196 24.278 46.3749 25.5338 45.4853 26.6327C44.7653 27.5491 43.6541 28.4745 42.1517 29.4091C41.6879 29.6976 41.6064 30.3488 42.0016 30.7257L46.3432 34.866C46.7374 35.2419 47.3814 35.131 47.5896 34.6277C47.9311 33.8019 48.2233 32.8864 48.4662 31.8812C48.5806 31.4081 49.0703 31.1216 49.5329 31.2727L51.9307 32.0562C52.327 32.1856 52.5629 32.594 52.4631 32.9987C52.0002 34.8771 51.3476 36.541 50.5053 37.9904C50.3095 38.3274 50.3591 38.7575 50.641 39.0266L53.0527 41.3286C53.3649 41.6267 53.3902 42.1167 53.1103 42.4452L51.463 44.379ZM39.4808 20.3142C38.4081 20.3142 37.5578 20.589 36.9299 21.1384C36.302 21.6616 35.988 22.355 35.988 23.2184C35.988 23.8463 36.1581 24.448 36.4982 25.0236C36.7855 25.4877 37.2968 26.1011 38.032 26.8638C38.2834 27.1246 38.6796 27.1807 38.9937 27.0004C40.2787 26.2629 41.1867 25.617 41.7178 25.0629C42.3457 24.4088 42.6597 23.7024 42.6597 22.9437C42.6597 22.1326 42.3719 21.4916 41.7963 21.0207C41.2469 20.5497 40.475 20.3142 39.4808 20.3142ZM38.5782 40.9963C40.5318 40.9963 42.2735 40.4856 43.8031 39.4641C44.21 39.1924 44.2314 38.6178 43.8778 38.2795L37.7147 32.3829C37.4579 32.1372 37.0701 32.0852 36.7633 32.2647C35.4654 33.0242 34.5267 33.7632 33.9473 34.4817C33.3194 35.2666 33.0054 36.1561 33.0054 37.1503C33.0054 38.3015 33.5156 39.2303 34.536 39.9367C35.5563 40.6431 36.9038 40.9963 38.5782 40.9963Z" fill="white"/>
</g>
<g filter="url(#filter1_d_975_467)">
<path d="M26.3179 18.1784C26.3179 17.4291 25.7106 16.8218 24.9613 16.8218L12.752 16.8218C12.0028 16.8218 11.3954 17.4291 11.3954 18.1784V32.287C11.3954 33.0362 12.0028 33.6436 12.752 33.6436H13.2946C14.0438 33.6436 14.6512 33.0362 14.6512 32.287V21.4342C14.6512 20.685 15.2586 20.0776 16.0078 20.0776H21.7055C22.4547 20.0776 23.0621 20.685 23.0621 21.4342V32.287C23.0621 33.0362 23.6695 33.6436 24.4187 33.6436H24.9613C25.7106 33.6436 26.3179 33.0362 26.3179 32.287V18.1784Z" fill="white"/>
<path d="M11.9025 33.3226C11.293 32.7131 11.293 31.7249 11.9025 31.1154L12.3439 30.674C12.9534 30.0645 13.9416 30.0645 14.5511 30.674L26.0283 42.1513C26.6378 42.7607 26.6378 43.7489 26.0283 44.3584L25.5869 44.7999C24.9774 45.4093 23.9892 45.4093 23.3797 44.7999L11.9025 33.3226Z" fill="white"/>
<path d="M23.1624 30.6739C23.7719 30.0644 24.7601 30.0644 25.3696 30.6739L25.811 31.1153C26.4205 31.7248 26.4205 32.713 25.811 33.3225L14.3337 44.7997C13.7242 45.4092 12.7361 45.4092 12.1266 44.7997L11.6851 44.3583C11.0757 43.7488 11.0757 42.7606 11.6851 42.1512L23.1624 30.6739Z" fill="white"/>
</g>
<defs>
<filter id="filter0_d_975_467" x="27.1323" y="16.8213" width="27.2577" height="30.3488" filterUnits="userSpaceOnUse" color-interpolation-filters="sRGB">
<feFlood flood-opacity="0" result="BackgroundImageFix"/>
<feColorMatrix in="SourceAlpha" type="matrix" values="0 0 0 0 0 0 0 0 0 0 0 0 0 0 0 0 0 0 127 0" result="hardAlpha"/>
<feOffset dy="1.08528"/>
<feGaussianBlur stdDeviation="0.542638"/>
<feComposite in2="hardAlpha" operator="out"/>
<feColorMatrix type="matrix" values="0 0 0 0 0 0 0 0 0 0 0 0 0 0 0 0 0 0 0.25 0"/>
<feBlend mode="normal" in2="BackgroundImageFix" result="effect1_dropShadow_975_467"/>
<feBlend mode="normal" in="SourceGraphic" in2="effect1_dropShadow_975_467" result="shape"/>
</filter>
<filter id="filter1_d_975_467" x="10.1428" y="16.8218" width="17.4279" height="30.6056" filterUnits="userSpaceOnUse" color-interpolation-filters="sRGB">
<feFlood flood-opacity="0" result="BackgroundImageFix"/>
<feColorMatrix in="SourceAlpha" type="matrix" values="0 0 0 0 0 0 0 0 0 0 0 0 0 0 0 0 0 0 127 0" result="hardAlpha"/>
<feOffset dy="1.08528"/>
<feGaussianBlur stdDeviation="0.542638"/>
<feComposite in2="hardAlpha" operator="out"/>
<feColorMatrix type="matrix" values="0 0 0 0 0 0 0 0 0 0 0 0 0 0 0 0 0 0 0.25 0"/>
<feBlend mode="normal" in2="BackgroundImageFix" result="effect1_dropShadow_975_467"/>
<feBlend mode="normal" in="SourceGraphic" in2="effect1_dropShadow_975_467" result="shape"/>
</filter>
</defs>
</svg>
