<svg width="30" height="31" viewBox="0 0 30 31" fill="none" xmlns="http://www.w3.org/2000/svg">
<mask id="mask0_851_596" style="mask-type:alpha" maskUnits="userSpaceOnUse" x="0" y="0" width="30" height="31">
<rect y="0.181152" width="30" height="30" fill="#D9D9D9"/>
</mask>
<g mask="url(#mask0_851_596)">
<path d="M15.0001 18.9307C14.3126 18.9307 13.7242 18.6857 13.2351 18.1957C12.7451 17.7065 12.5001 17.1182 12.5001 16.4307C12.5001 15.7432 12.7451 15.1544 13.2351 14.6644C13.7242 14.1752 14.3126 13.9307 15.0001 13.9307C15.6876 13.9307 16.2763 14.1752 16.7663 14.6644C17.2555 15.1544 17.5001 15.7432 17.5001 16.4307C17.5001 17.1182 17.2555 17.7065 16.7663 18.1957C16.2763 18.6857 15.6876 18.9307 15.0001 18.9307ZM9.90631 21.9619C9.17714 21.2744 8.59381 20.4569 8.15631 19.5094C7.71881 18.5611 7.50006 17.5348 7.50006 16.4307C7.50006 14.3473 8.22923 12.5765 9.68756 11.1182C11.1459 9.65983 12.9167 8.93066 15.0001 8.93066C17.0834 8.93066 18.8542 9.65983 20.3126 11.1182C21.7709 12.5765 22.5001 14.3473 22.5001 16.4307C22.5001 17.5348 22.2813 18.5661 21.8438 19.5244C21.4063 20.4827 20.823 21.2952 20.0938 21.9619L18.3126 20.1807C18.8334 19.7015 19.2446 19.139 19.5463 18.4932C19.8488 17.8473 20.0001 17.1598 20.0001 16.4307C20.0001 15.0557 19.5105 13.8786 18.5313 12.8994C17.5521 11.9202 16.3751 11.4307 15.0001 11.4307C13.6251 11.4307 12.448 11.9202 11.4688 12.8994C10.4896 13.8786 10.0001 15.0557 10.0001 16.4307C10.0001 17.1807 10.1513 17.8732 10.4538 18.5082C10.7555 19.144 11.1667 19.7015 11.6876 20.1807L9.90631 21.9619ZM6.37506 25.4932C5.18756 24.3473 4.24506 22.9982 3.54756 21.4457C2.84923 19.894 2.50006 18.2223 2.50006 16.4307C2.50006 14.7015 2.82839 13.0765 3.48506 11.5557C4.14089 10.0348 5.03131 8.71191 6.15631 7.58691C7.28131 6.46191 8.60423 5.57108 10.1251 4.91441C11.6459 4.25858 13.2709 3.93066 15.0001 3.93066C16.7292 3.93066 18.3542 4.25858 19.8751 4.91441C21.3959 5.57108 22.7188 6.46191 23.8438 7.58691C24.9688 8.71191 25.8592 10.0348 26.5151 11.5557C27.1717 13.0765 27.5001 14.7015 27.5001 16.4307C27.5001 18.2223 27.1513 19.8994 26.4538 21.4619C25.7555 23.0244 24.8126 24.3682 23.6251 25.4932L21.8751 23.7432C22.8334 22.8265 23.5938 21.7382 24.1563 20.4782C24.7188 19.2173 25.0001 17.8682 25.0001 16.4307C25.0001 13.639 24.0313 11.2744 22.0938 9.33691C20.1563 7.39941 17.7917 6.43066 15.0001 6.43066C12.2084 6.43066 9.84381 7.39941 7.90631 9.33691C5.96881 11.2744 5.00006 13.639 5.00006 16.4307C5.00006 17.8682 5.28131 19.2119 5.84381 20.4619C6.40631 21.7119 7.17714 22.7952 8.15631 23.7119L6.37506 25.4932Z" fill="#1C1B1F"/>
</g>
</svg>
