<svg width="18" height="18" viewBox="0 0 18 18" fill="none" xmlns="http://www.w3.org/2000/svg">
<path d="M17.5198 17.267C17.1391 17.6661 16.5021 17.6661 16.1214 17.267L11.4585 12.3787C11.0944 11.9971 10.4999 11.9729 10.0432 12.2368C9.76858 12.3954 9.47603 12.5332 9.16554 12.65C8.5455 12.8833 7.88572 13 7.18619 13C5.45327 13 3.98681 12.371 2.7868 11.113C1.58616 9.85433 0.98584 8.31667 0.98584 6.5C0.98584 4.68333 1.58616 3.14567 2.7868 1.887C3.98681 0.629 5.45327 0 7.18619 0C8.91911 0 10.3859 0.629 11.5865 1.887C12.7865 3.14567 13.3865 4.68333 13.3865 6.5C13.3865 7.23333 13.2753 7.925 13.0527 8.575C12.9296 8.9343 12.7823 9.27069 12.6107 9.58415C12.3745 10.0156 12.3964 10.5621 12.736 10.918L17.5198 15.933C17.8759 16.3064 17.8759 16.8936 17.5198 17.267V17.267ZM7.18619 11C8.37857 11 9.39225 10.5627 10.2272 9.688C11.0616 8.81267 11.4787 7.75 11.4787 6.5C11.4787 5.25 11.0616 4.18733 10.2272 3.312C9.39225 2.43733 8.37857 2 7.18619 2C5.99382 2 4.98014 2.43733 4.14516 3.312C3.31081 4.18733 2.89364 5.25 2.89364 6.5C2.89364 7.75 3.31081 8.81267 4.14516 9.688C4.98014 10.5627 5.99382 11 7.18619 11Z" fill="#252525"/>
</svg>
