<svg width="56" height="38" viewBox="0 0 56 38" fill="none" xmlns="http://www.w3.org/2000/svg">
<g filter="url(#filter0_d_851_670)">
<path d="M51.4697 33.9283C51.1084 34.3524 50.4642 34.3837 50.0634 33.9966L47.1868 31.2181C46.8284 30.8719 46.2672 30.8578 45.8732 31.1629C42.8603 33.4961 39.3058 34.6627 35.2097 34.6627C32.8602 34.6627 30.7521 34.2764 28.8854 33.504C27.0188 32.7316 25.5544 31.6695 24.4923 30.3178C23.4302 28.9339 22.8992 27.3729 22.8992 25.635C22.8992 23.543 23.5107 21.7085 24.7337 20.1315C25.7874 18.7449 27.4147 17.3823 29.6153 16.0435C30.1629 15.7104 30.268 14.9507 29.8401 14.4736C28.9403 13.4705 28.2681 12.5242 27.8234 11.6348C27.244 10.444 26.9544 9.22099 26.9544 7.9658C26.9544 5.58417 27.8395 3.6692 29.6096 2.22091C31.4119 0.740435 33.7935 0.000195291 36.7545 0.000195291C39.4902 0.000195291 41.6787 0.676066 43.3201 2.02781C44.9615 3.34736 45.7822 5.14968 45.7822 7.43476C45.7822 9.17272 45.2351 10.7176 44.1408 12.0693C43.2486 13.2048 41.8681 14.3517 39.9993 15.5099C39.4484 15.8514 39.3518 16.624 39.8208 17.0713L45.2305 22.2302C45.6983 22.6763 46.4624 22.5448 46.711 21.9482C47.1434 20.9103 47.5121 19.7566 47.817 18.487C47.9519 17.9254 48.533 17.5854 49.082 17.7648L52.0998 18.7508C52.57 18.9044 52.8499 19.3889 52.732 19.8693C52.1595 22.2035 51.3492 24.2691 50.3013 26.0661C50.0683 26.4656 50.1273 26.9759 50.4618 27.2953L53.4738 30.1704C53.8443 30.524 53.8743 31.1054 53.5422 31.4953L51.4697 33.9283ZM36.7545 4.2968C35.4349 4.2968 34.389 4.63473 33.6165 5.3106C32.8441 5.95429 32.4579 6.80717 32.4579 7.86925C32.4579 8.64167 32.6671 9.38191 33.0855 10.09C33.4413 10.6647 34.0763 11.4256 34.9906 12.3727C35.2891 12.6818 35.7594 12.7485 36.1322 12.5349C37.7251 11.6221 38.8498 10.8232 39.5063 10.1382C40.2787 9.33364 40.6649 8.46466 40.6649 7.53132C40.6649 6.5336 40.3109 5.74509 39.6028 5.16577C38.9269 4.58646 37.9775 4.2968 36.7545 4.2968ZM35.6441 29.7385C38.0616 29.7385 40.2151 29.1027 42.1047 27.8313C42.5865 27.5072 42.6119 26.8255 42.1924 26.4242L34.5631 19.1249C34.2584 18.8333 33.7983 18.7717 33.434 18.9843C31.8258 19.9232 30.6636 20.8367 29.9475 21.7246C29.1751 22.6901 28.7889 23.7844 28.7889 25.0074C28.7889 26.4235 29.4165 27.566 30.6717 28.435C31.9269 29.304 33.5843 29.7385 35.6441 29.7385Z" fill="white"/>
</g>
<g filter="url(#filter1_d_851_670)">
<path d="M20.5625 1.66879C20.5625 0.747143 19.8154 6.96792e-07 18.8938 6.56505e-07L3.87467 0C2.95302 -4.02864e-08 2.20588 0.747142 2.20588 1.66879V19.0242C2.20588 19.9458 2.95302 20.693 3.87467 20.693H4.54218C5.46383 20.693 6.21097 19.9458 6.21097 19.0242V5.67388C6.21097 4.75223 6.95811 4.00509 7.87976 4.00509H14.8887C15.8103 4.00509 16.5575 4.75223 16.5575 5.67388V19.0242C16.5575 19.9458 17.3046 20.693 18.2262 20.693H18.8938C19.8154 20.693 20.5625 19.9458 20.5625 19.0242V1.66879Z" fill="white"/>
<path d="M2.82964 20.2982C2.07989 19.5484 2.07989 18.3328 2.82964 17.5831L3.37266 17.0401C4.12241 16.2903 5.338 16.2903 6.08775 17.0401L20.2063 31.1586C20.956 31.9083 20.956 33.1239 20.2063 33.8737L19.6632 34.4167C18.9135 35.1664 17.6979 35.1664 16.9481 34.4167L2.82964 20.2982Z" fill="white"/>
<path d="M16.6808 17.0399C17.4306 16.2902 18.6462 16.2902 19.3959 17.0399L19.9389 17.5829C20.6887 18.3327 20.6887 19.5483 19.9389 20.298L5.82043 34.4165C5.07068 35.1663 3.85509 35.1663 3.10533 34.4165L2.56231 33.8735C1.81256 33.1238 1.81256 31.9082 2.56232 31.1584L16.6808 17.0399Z" fill="white"/>
</g>
<defs>
<filter id="filter0_d_851_670" x="21.6114" y="0" width="33.4491" height="37.2381" filterUnits="userSpaceOnUse" color-interpolation-filters="sRGB">
<feFlood flood-opacity="0" result="BackgroundImageFix"/>
<feColorMatrix in="SourceAlpha" type="matrix" values="0 0 0 0 0 0 0 0 0 0 0 0 0 0 0 0 0 0 127 0" result="hardAlpha"/>
<feOffset dy="1.28777"/>
<feGaussianBlur stdDeviation="0.643886"/>
<feComposite in2="hardAlpha" operator="out"/>
<feColorMatrix type="matrix" values="0 0 0 0 0 0 0 0 0 0 0 0 0 0 0 0 0 0 0.25 0"/>
<feBlend mode="normal" in2="BackgroundImageFix" result="effect1_dropShadow_851_670"/>
<feBlend mode="normal" in="SourceGraphic" in2="effect1_dropShadow_851_670" result="shape"/>
</filter>
<filter id="filter1_d_851_670" x="0.712227" y="0" width="21.3441" height="37.5545" filterUnits="userSpaceOnUse" color-interpolation-filters="sRGB">
<feFlood flood-opacity="0" result="BackgroundImageFix"/>
<feColorMatrix in="SourceAlpha" type="matrix" values="0 0 0 0 0 0 0 0 0 0 0 0 0 0 0 0 0 0 127 0" result="hardAlpha"/>
<feOffset dy="1.28777"/>
<feGaussianBlur stdDeviation="0.643886"/>
<feComposite in2="hardAlpha" operator="out"/>
<feColorMatrix type="matrix" values="0 0 0 0 0 0 0 0 0 0 0 0 0 0 0 0 0 0 0.25 0"/>
<feBlend mode="normal" in2="BackgroundImageFix" result="effect1_dropShadow_851_670"/>
<feBlend mode="normal" in="SourceGraphic" in2="effect1_dropShadow_851_670" result="shape"/>
</filter>
</defs>
</svg>
